<svg xmlns="http://www.w3.org/2000/svg" viewBox="0 0 283.46 113.39"><defs><style>.cls-1{fill:#e55c25;}.cls-2{fill:#fff;}</style></defs><g id="Laag_2" data-name="Laag 2"><g id="Logo"><polygon class="cls-1" points="283.46 90.71 0 113.39 0 0 283.46 0 283.46 90.71"></polygon><path class="cls-2" d="M27.91,45,31.48,45l.07,2.69h.08a6.73,6.73,0,0,1,2.77-2.41,8.68,8.68,0,0,1,3.69-.93,10,10,0,0,1,4,.65,8.83,8.83,0,0,1,3.07,2,9.61,9.61,0,0,1,2,3.11,11.43,11.43,0,0,1,.2,7.77A9.27,9.27,0,0,1,45.49,61a9.09,9.09,0,0,1-3,2.16,9.85,9.85,0,0,1-3.93.85,8.63,8.63,0,0,1-3.83-.75A6.58,6.58,0,0,1,32,61.05h-.08l.37,13.89L28.69,75Zm9.83,2.6a6.59,6.59,0,0,0-2.57.56,5.67,5.67,0,0,0-3.08,3.5,7.84,7.84,0,0,0-.37,2.65A7.59,7.59,0,0,0,32.23,57a5.77,5.77,0,0,0,1.28,2,5.55,5.55,0,0,0,2,1.3,7,7,0,0,0,5.16-.13,5.73,5.73,0,0,0,1.9-1.4,5.86,5.86,0,0,0,1.18-2.09A7.87,7.87,0,0,0,44.1,54a7.64,7.64,0,0,0-.51-2.63,5.91,5.91,0,0,0-1.28-2,5.55,5.55,0,0,0-2-1.3A6.53,6.53,0,0,0,37.74,47.64Z"></path><path class="cls-2" d="M63.74,49.11a7.62,7.62,0,0,0-2.12-1.51,6.48,6.48,0,0,0-5.16.13,5.17,5.17,0,0,0-1.79,1.52,6.63,6.63,0,0,0-1.05,2.17A8.17,8.17,0,0,0,53.31,54a7,7,0,0,0,.5,2.46,6.27,6.27,0,0,0,1.28,2A5.69,5.69,0,0,0,57,59.74a6,6,0,0,0,2.51.44,5.73,5.73,0,0,0,2.57-.61A6.48,6.48,0,0,0,64.05,58l2.6,2.48a8,8,0,0,1-3.17,2.3,11.47,11.47,0,0,1-3.89.78,10.83,10.83,0,0,1-4-.61A9.37,9.37,0,0,1,52.42,61a8.82,8.82,0,0,1-2.11-3,11.59,11.59,0,0,1-.2-8,8.91,8.91,0,0,1,5-5.31,10.66,10.66,0,0,1,4-.84,11,11,0,0,1,4,.63,8.72,8.72,0,0,1,3.33,2.16Z"></path><path class="cls-2" d="M66.63,53.44a9.63,9.63,0,0,1,.68-3.87,10.11,10.11,0,0,1,13-5.59,9.75,9.75,0,0,1,3.23,2,9.92,9.92,0,0,1,2.2,3.07A9.87,9.87,0,0,1,83.91,60a9.79,9.79,0,0,1-3.12,2.18,10.33,10.33,0,0,1-7.85.21,10.21,10.21,0,0,1-3.23-2,9.62,9.62,0,0,1-2.2-3.08A9.74,9.74,0,0,1,66.63,53.44Zm3.81-.1A7.46,7.46,0,0,0,71,56a5.77,5.77,0,0,0,1.28,2,5.55,5.55,0,0,0,2,1.3,6.95,6.95,0,0,0,5.15-.13,5.81,5.81,0,0,0,1.91-1.4,5.91,5.91,0,0,0,1.18-2.1,8.11,8.11,0,0,0-.14-5.27,6.05,6.05,0,0,0-1.28-2,5.66,5.66,0,0,0-2-1.29,6.22,6.22,0,0,0-2.59-.43,6.42,6.42,0,0,0-2.57.56A5.77,5.77,0,0,0,72,48.6a6,6,0,0,0-1.17,2.09A7.87,7.87,0,0,0,70.44,53.34Z"></path><path class="cls-2" d="M106,61.83l-3.57.09-.07-2.9h-.08A5.33,5.33,0,0,1,100,61.53a7.79,7.79,0,0,1-3.82,1,8.09,8.09,0,0,1-2.63-.35A6,6,0,0,1,91.38,61a6.26,6.26,0,0,1-1.55-2.21,8.57,8.57,0,0,1-.63-3.21l-.32-12.1,3.57-.1.29,11.11a6.29,6.29,0,0,0,.41,2.23,4.19,4.19,0,0,0,1,1.49,3.45,3.45,0,0,0,1.39.79,5.1,5.1,0,0,0,1.61.22,5.89,5.89,0,0,0,2-.41,4.23,4.23,0,0,0,1.64-1.18,5.25,5.25,0,0,0,1.06-2,9,9,0,0,0,.32-2.82L102,43.12l3.57-.1Z"></path><path class="cls-2" d="M115.74,42.76l4-.1,4.58,13.93h.08l4.14-14.16,3.81-.1,5.13,13.92h.08l3.64-14.15L145,42l-5.59,19-3.61.09-5.34-13.91h-.08L126.22,61.3l-3.81.1Z"></path><path class="cls-2" d="M145.4,35.24A2.65,2.65,0,0,1,148,32.55a2.56,2.56,0,0,1,1.86.73,2.61,2.61,0,1,1-4.41,2Zm1,6.72,3.57-.09.49,18.8-3.57.1Z"></path><path class="cls-2" d="M153.65,30.58l3.57-.09.78,30-3.57.09Z"></path><path class="cls-2" d="M161.19,30.38l3.57-.09.78,30-3.57.1Z"></path><path class="cls-2" d="M168,34.65a2.62,2.62,0,1,1,4.51,1.73,2.48,2.48,0,0,1-1.83.82A2.63,2.63,0,0,1,168,34.65Zm1,6.73,3.57-.1.48,18.81-3.57.09Z"></path><path class="cls-2" d="M176,30l3.58-.09.36,13.88H180a6.59,6.59,0,0,1,2.68-2.39,8.68,8.68,0,0,1,3.79-.95,10,10,0,0,1,4,.65,8.88,8.88,0,0,1,3.06,2,9.28,9.28,0,0,1,2,3.09,11,11,0,0,1,.77,3.89,10.78,10.78,0,0,1-.57,3.9,9.45,9.45,0,0,1-1.84,3.19,8.87,8.87,0,0,1-3,2.18,9.89,9.89,0,0,1-3.93.85,8.72,8.72,0,0,1-3.73-.73,6.87,6.87,0,0,1-2.9-2.27h-.08l.07,2.7-3.57.09Zm10.47,26.88a6.33,6.33,0,0,0,2.56-.56,5.67,5.67,0,0,0,1.91-1.4,5.86,5.86,0,0,0,1.18-2.09,8.14,8.14,0,0,0-.14-5.28,5.91,5.91,0,0,0-1.28-2,5.64,5.64,0,0,0-2-1.3,7,7,0,0,0-5.16.13,5.91,5.91,0,0,0-1.91,1.4,6,6,0,0,0-1.17,2.1,8.2,8.2,0,0,0,.13,5.27,6.08,6.08,0,0,0,1.29,2,5.66,5.66,0,0,0,2,1.29A6.36,6.36,0,0,0,186.45,56.88Z"></path><path class="cls-2" d="M198.53,40.61l3.57-.09.08,2.89h.08a5.06,5.06,0,0,1,.91-1.39,6.78,6.78,0,0,1,1.3-1.09,7,7,0,0,1,1.59-.73,6.25,6.25,0,0,1,1.74-.31,5,5,0,0,1,1.59.2l0,3.85c-.3-.07-.59-.13-.88-.17a4.34,4.34,0,0,0-.88-.06,5.29,5.29,0,0,0-4,1.57,6.49,6.49,0,0,0-1.27,4.6l.25,9.44-3.57.09Z"></path><path class="cls-2" d="M209.84,49.73a9.57,9.57,0,0,1,.68-3.87,9.93,9.93,0,0,1,5.16-5.4,10.39,10.39,0,0,1,7.85-.2,9.75,9.75,0,0,1,3.23,2,10,10,0,0,1,2.2,3.08,9.92,9.92,0,0,1,.2,7.71,9.48,9.48,0,0,1-2,3.19A10,10,0,0,1,224,58.47a10.39,10.39,0,0,1-7.85.2,9.86,9.86,0,0,1-3.23-2,9.62,9.62,0,0,1-2.2-3.08A9.73,9.73,0,0,1,209.84,49.73Zm3.81-.1a7.63,7.63,0,0,0,.51,2.62,5.91,5.91,0,0,0,1.28,2,5.55,5.55,0,0,0,2,1.3,7,7,0,0,0,5.16-.13,5.73,5.73,0,0,0,1.9-1.4A5.86,5.86,0,0,0,225.66,52a7.87,7.87,0,0,0,.37-2.65,7.64,7.64,0,0,0-.51-2.63,5.91,5.91,0,0,0-1.28-2,5.55,5.55,0,0,0-2-1.3,7,7,0,0,0-5.16.13,5.73,5.73,0,0,0-1.9,1.4A5.82,5.82,0,0,0,214,47,7.84,7.84,0,0,0,213.65,49.63Z"></path><path class="cls-2" d="M232.09,39.74l3.57-.09.08,2.89h.08a5.06,5.06,0,0,1,.91-1.39A6.55,6.55,0,0,1,238,40.06a6.91,6.91,0,0,1,1.58-.73,6.25,6.25,0,0,1,1.74-.31,5.09,5.09,0,0,1,1.6.2l-.06,3.85c-.3-.07-.59-.13-.88-.17a4.29,4.29,0,0,0-.88-.06,5.23,5.23,0,0,0-4,1.57,6.43,6.43,0,0,0-1.27,4.6l.24,9.44-3.57.09Z"></path><path class="cls-2" d="M263.41,57.74l-3.57.1-.07-2.7h-.08a6.75,6.75,0,0,1-2.78,2.41,8.68,8.68,0,0,1-3.69.93,9.93,9.93,0,0,1-4-.65,8.6,8.6,0,0,1-3.07-2,9.48,9.48,0,0,1-2-3.09,10.7,10.7,0,0,1-.77-3.86,11,11,0,0,1,.57-3.93,9.13,9.13,0,0,1,1.84-3.18,9,9,0,0,1,3-2.17,10.11,10.11,0,0,1,3.93-.85,8.74,8.74,0,0,1,3.83.75,6.52,6.52,0,0,1,2.8,2.25h.08l-.36-13.88,3.57-.1Zm-9.84-2.6a6.42,6.42,0,0,0,2.57-.56,5.77,5.77,0,0,0,1.91-1.4,6,6,0,0,0,1.17-2.1,7.54,7.54,0,0,0,.37-2.64,7.64,7.64,0,0,0-.5-2.63,5.93,5.93,0,0,0-1.29-2,5.55,5.55,0,0,0-2-1.3,6.5,6.5,0,0,0-2.59-.43,6.37,6.37,0,0,0-2.56.56,5.67,5.67,0,0,0-1.91,1.4,5.82,5.82,0,0,0-1.18,2.1,8.11,8.11,0,0,0,.14,5.27,5.91,5.91,0,0,0,1.28,2,5.73,5.73,0,0,0,2,1.3A6.39,6.39,0,0,0,253.57,55.14Z"></path></g></g></svg>